# xmcd
#
# Track frame offsets: 
#        150
#        18037
#        33390
#        54861
#        71533
#        88219
#        105393
#        116242
#        132657
#        149730
#        168244
#        184576
#        214303
#        231371
#        243213
#        258668
#        274888
#        292526
#        310960
#
# Disc length: 4427 seconds
#
# Revision: 1
# Processed by: cddbd v1.5.2PL0 Copyright (c) Steve Scherf et al.
# Submitted via: ExactAudioCopyFreeDBPlugin 1.0
#
DISCID=17114913
DTITLE=Arisa - Amami Tour
DYEAR=2012
DGENRE=Pop
TTITLE0=Meraviglioso Amore Mio
TTITLE1=Senza Ali
TTITLE2=Amami
TTITLE3=Toxic
TTITLE4=La Mia Strana Verità
TTITLE5=Oggi
TTITLE6=Vecchio Frack
TTITLE7=Il Tempo Che Verrà
TTITLE8=Medley (Sweet Dreams - Lieutenant Kije Suite, Op.60 - Earth So
TTITLE8=ng)
TTITLE9=Viva La Vida
TTITLE10=Personal Jesus
TTITLE11=Medley (Loosing My Religion - Ti Sento)
TTITLE12=Sincerità
TTITLE13=Kobra
TTITLE14=Malamorenò
TTITLE15=Missiva D'Amore
TTITLE16=L'Amore È Un'Altra Cosa
TTITLE17=La Notte
TTITLE18=Pace
EXTD=
EXTT0=
EXTT1=
EXTT2=
EXTT3=
EXTT4=
EXTT5=
EXTT6=
EXTT7=
EXTT8=
EXTT9=
EXTT10=
EXTT11=
EXTT12=
EXTT13=
EXTT14=
EXTT15=
EXTT16=
EXTT17=
EXTT18=
PLAYORDER=
